# xmcd
#
# Track frame offsets: 
#        150
#        23676
#        45963
#        68735
#        93814
#        116796
#        141102
#        169265
#        194367
#
# Disc length: 2917 seconds
#
# Revision: 1
# Processed by: cddbd v1.5.2PL0 Copyright (c) Steve Scherf et al.
# Submitted via: ExactAudioCopy v0.99pb5
#
DISCID=700b6309
DTITLE=Various Artist - Marvin, Teddy and Luther......a smooth urban jazz love 
DTITLE=letter
DYEAR=2004
DGENRE=Jazz
TTITLE0=You Sure Love To Ball
TTITLE1=Turn Out The Lights
TTITLE2=So Amazing
TTITLE3=Is It Still Good To Ya?
TTITLE4=After The Dance
TTITLE5=Love TKO
TTITLE6=If Only For One Night
TTITLE7=I Want You
TTITLE8=Here And Now
EXTD=YEAR: 2004
EXTT0=
EXTT1=
EXTT2=
EXTT3=
EXTT4=
EXTT5=
EXTT6=
EXTT7=
EXTT8=
PLAYORDER=
